<?xml version="1.0" encoding="UTF-8"?><svg id="Layer_2" xmlns="http://www.w3.org/2000/svg" width="511.22" height="212.86" viewBox="0 0 511.22 212.86"><defs><style>.cls-1,.cls-2{font-family:ArialMT, Arial;}.cls-3{fill:#63bf78;}.cls-3,.cls-4,.cls-5,.cls-6,.cls-7,.cls-8,.cls-9,.cls-10,.cls-11{stroke-width:0px;}.cls-12{font-size:8px;}.cls-12,.cls-5{fill:#231f20;}.cls-4{fill:#f49d3e;}.cls-6{fill:#646666;}.cls-7{fill:#f05b7a;}.cls-13{font-family:Arial-BoldMT, Arial;font-weight:700;}.cls-8{fill:#7d828c;}.cls-9{fill:#be1e2d;}.cls-10{fill:#fff;}.cls-2{letter-spacing:-.06em;}.cls-11{fill:#00a651;}</style></defs><g id="Latent"><polyline class="cls-10" points="0 212.86 0 0 511.07 0 511.22 212.86"/><rect class="cls-6" x="17.76" y="80.4" width="191.8" height="39.25"/><rect class="cls-4" x="17.76" y="97.26" width="191.8" height="5.52"/><polygon class="cls-5" points="209.56 63.65 160.92 63.65 137.86 63.65 113.02 63.65 84.79 63.4 66.55 63.65 17.76 63.65 17.76 24.4 209.56 24.4 209.56 63.65"/><rect class="cls-8" x="17.76" y="41.27" width="191.8" height="5.52"/><rect class="cls-6" x="278.22" y="80.4" width="191.8" height="39.25"/><rect class="cls-4" x="278.22" y="97.26" width="191.8" height="5.52"/><polygon class="cls-5" points="470.03 63.65 421.38 63.65 398.33 63.65 373.48 63.65 345.25 63.4 327.01 63.65 278.22 63.65 278.22 24.4 470.03 24.4 470.03 63.65"/><rect class="cls-8" x="278.22" y="41.27" width="191.8" height="5.52"/><text class="cls-12" transform="translate(19.29 17.54)"><tspan class="cls-13" x="0" y="0">a.</tspan><tspan class="cls-1" x="6.67" y="0" xml:space="preserve"> Before particle has caused a short</tspan></text><text class="cls-12" transform="translate(278.22 17.54)"><tspan class="cls-13" x="0" y="0">b.</tspan><tspan class="cls-2" x="7.11" y="0"> </tspan><tspan class="cls-1" x="8.89" y="0">After particle has caused a short</tspan></text><circle class="cls-4" cx="61.51" cy="80.4" r="9.23"/><circle class="cls-4" cx="321.21" cy="72.02" r="9.23"/><path class="cls-9" d="M85.26,151.75h-.8c0,3.68-1.49,7.01-3.9,9.42-2.41,2.41-5.74,3.9-9.42,3.9-3.68,0-7.01-1.49-9.42-3.9-2.41-2.41-3.9-5.74-3.9-9.42,0-3.68,1.49-7.01,3.9-9.42,2.41-2.41,5.74-3.9,9.42-3.9,3.68,0,7.01,1.49,9.42,3.9,2.41,2.41,3.9,5.74,3.9,9.42h1.6c0-8.24-6.68-14.93-14.93-14.93-8.24,0-14.93,6.68-14.93,14.93,0,8.24,6.68,14.93,14.93,14.93,8.24,0,14.93-6.68,14.93-14.93h-.8Z"/><polyline class="cls-9" points="85.26 152.55 113.99 152.55 113.99 150.95 85.26 150.95"/><polyline class="cls-9" points="26.79 153.03 57 153.03 57 151.43 26.79 151.43"/><path class="cls-9" d="M74.09,146.68l-3.45,9.79,1.13.4-1.07-.54.24.12v-.27l-.24.15.24.12v-.27.27l.24-.12-.24-.15v.27l.24-.12-1.07.54,1.13-.4-3.45-9.79-2.26.8,3.48,9.86.03.07c.38.77,1.17,1.18,1.9,1.17.73,0,1.52-.41,1.9-1.17l.03-.07,3.48-9.86-2.26-.8Z"/><path class="cls-9" d="M85.26,186.71h-.8c0,3.68-1.49,7.01-3.9,9.42-2.41,2.41-5.74,3.9-9.42,3.9-3.68,0-7.01-1.49-9.42-3.9-2.41-2.41-3.9-5.74-3.9-9.42,0-3.68,1.49-7.01,3.9-9.42,2.41-2.41,5.74-3.9,9.42-3.9,3.68,0,7.01,1.49,9.42,3.9,2.41,2.41,3.9,5.74,3.9,9.42h1.6c0-8.24-6.68-14.93-14.93-14.93-8.24,0-14.93,6.68-14.93,14.93,0,8.24,6.68,14.93,14.93,14.93,8.24,0,14.93-6.68,14.93-14.93h-.8Z"/><polyline class="cls-9" points="85.26 187.51 113.99 187.51 113.99 185.91 85.26 185.91"/><polyline class="cls-9" points="26.79 187.99 57 187.99 57 186.39 26.79 186.39"/><path class="cls-9" d="M67.78,192.74l3.45-9.79-1.13-.4,1.07.54-.24-.12v.27s.24-.15.24-.15l-.24-.12v.27s0-.27,0-.27l-.24.12.24.15v-.27l-.24.12,1.07-.54-1.13.4,3.45,9.79,2.26-.8-3.48-9.86-.04-.07c-.38-.77-1.17-1.18-1.9-1.17-.73,0-1.52.41-1.9,1.17l-.04.07-3.48,9.86,2.26.8Z"/><polyline class="cls-9" points="67.92 189.94 73.95 189.94 73.95 187.54 67.92 187.54"/><polygon class="cls-7" points="131.19 161.2 130.12 160.13 127.44 162.8 124.76 160.13 123.69 161.2 126.37 163.88 123.69 166.55 124.76 167.63 127.44 164.95 130.12 167.63 131.19 166.55 128.51 163.88 131.19 161.2"/><path class="cls-9" d="M133.64,166.67v-5.73h1.12l2.34,3.82v-3.82h1.07v5.73h-1.16l-2.31-3.73v3.73h-1.07Z"/><path class="cls-9" d="M139.14,164.54c0-.36.09-.72.27-1.06.18-.34.43-.6.76-.78s.7-.27,1.1-.27c.63,0,1.14.2,1.54.61.4.41.6.92.6,1.54s-.2,1.15-.61,1.56c-.41.41-.92.62-1.53.62-.38,0-.74-.09-1.09-.26s-.61-.42-.79-.76-.27-.74-.27-1.21ZM140.27,164.6c0,.41.1.73.29.95s.44.33.72.33.53-.11.72-.33.29-.54.29-.95-.1-.72-.29-.94-.43-.33-.72-.33-.53.11-.72.33-.29.53-.29.95Z"/><path class="cls-9" d="M148.91,165.35l1.09.18c-.14.4-.36.71-.67.92-.3.21-.68.31-1.14.31-.72,0-1.25-.24-1.6-.71-.27-.38-.41-.85-.41-1.43,0-.69.18-1.23.54-1.62.36-.39.81-.58,1.36-.58.62,0,1.1.2,1.46.61.36.41.53,1.03.51,1.87h-2.75c0,.33.1.58.27.76.17.18.38.27.63.27.17,0,.32-.05.43-.14s.21-.24.27-.45ZM148.97,164.24c0-.32-.09-.56-.25-.72-.16-.17-.35-.25-.57-.25-.24,0-.44.09-.59.26-.16.17-.23.41-.23.71h1.64Z"/><path class="cls-9" d="M150.95,166.67v-5.73h1.1v5.73h-1.1Z"/><path class="cls-9" d="M155.58,165.35l1.09.18c-.14.4-.36.71-.67.92-.3.21-.68.31-1.14.31-.72,0-1.25-.24-1.6-.71-.27-.38-.41-.85-.41-1.43,0-.69.18-1.23.54-1.62.36-.39.81-.58,1.36-.58.62,0,1.1.2,1.46.61.36.41.53,1.03.51,1.87h-2.75c0,.33.1.58.27.76.17.18.38.27.63.27.17,0,.32-.05.43-.14s.21-.24.27-.45ZM155.64,164.24c0-.32-.09-.56-.25-.72-.16-.17-.35-.25-.57-.25-.24,0-.44.09-.59.26-.16.17-.23.41-.23.71h1.64Z"/><path class="cls-9" d="M161.24,163.75l-1.08.2c-.04-.22-.12-.38-.25-.49s-.3-.16-.5-.16c-.27,0-.49.09-.65.28-.16.19-.24.5-.24.95,0,.49.08.84.25,1.04s.39.3.67.3c.21,0,.38-.06.51-.18.13-.12.23-.32.28-.61l1.08.18c-.11.5-.33.87-.64,1.12-.32.25-.74.38-1.28.38-.61,0-1.09-.19-1.45-.57s-.54-.91-.54-1.59.18-1.22.54-1.6c.36-.38.85-.57,1.47-.57.5,0,.91.11,1.21.33.3.22.51.55.64.99Z"/><path class="cls-9" d="M163.98,162.53v.88h-.75v1.67c0,.34,0,.54.02.59.01.06.05.1.1.14.05.04.11.05.19.05.1,0,.25-.04.44-.11l.09.85c-.25.11-.54.16-.87.16-.2,0-.38-.03-.54-.1s-.28-.15-.35-.26-.13-.25-.15-.43c-.02-.13-.04-.38-.04-.77v-1.81h-.5v-.88h.5v-.82l1.1-.64v1.46h.75Z"/><path class="cls-9" d="M165.79,166.67h-1.1v-4.15h1.02v.59c.17-.28.33-.46.47-.55.14-.09.3-.13.47-.13.25,0,.49.07.72.21l-.34.96c-.18-.12-.36-.18-.52-.18s-.28.04-.39.13c-.11.08-.19.24-.25.46-.06.22-.09.69-.09,1.39v1.28Z"/><path class="cls-9" d="M167.6,164.54c0-.36.09-.72.27-1.06.18-.34.43-.6.76-.78s.7-.27,1.1-.27c.63,0,1.14.2,1.54.61.4.41.6.92.6,1.54s-.2,1.15-.61,1.56c-.41.41-.92.62-1.53.62-.38,0-.74-.09-1.09-.26s-.61-.42-.79-.76-.27-.74-.27-1.21ZM168.72,164.6c0,.41.1.73.29.95s.44.33.72.33.53-.11.72-.33.29-.54.29-.95-.1-.72-.29-.94-.43-.33-.72-.33-.53.11-.72.33-.29.53-.29.95Z"/><path class="cls-9" d="M176.36,163.75l-1.08.2c-.04-.22-.12-.38-.25-.49s-.3-.16-.5-.16c-.27,0-.49.09-.65.28-.16.19-.24.5-.24.95,0,.49.08.84.25,1.04s.39.3.67.3c.21,0,.38-.06.51-.18.13-.12.23-.32.28-.61l1.08.18c-.11.5-.33.87-.64,1.12-.32.25-.74.38-1.28.38-.61,0-1.09-.19-1.45-.57s-.54-.91-.54-1.59.18-1.22.54-1.6c.36-.38.85-.57,1.47-.57.5,0,.91.11,1.21.33.3.22.51.55.64.99Z"/><path class="cls-9" d="M178.28,160.95v2.11c.35-.41.78-.62,1.27-.62.25,0,.48.05.68.14s.36.21.46.36c.1.15.17.31.21.48.04.18.06.45.06.82v2.43h-1.1v-2.19c0-.43-.02-.71-.06-.83s-.12-.21-.22-.28c-.11-.07-.24-.1-.4-.1-.18,0-.34.04-.49.13-.14.09-.25.22-.31.4-.07.18-.1.44-.1.79v2.08h-1.1v-5.73h1.1Z"/><path class="cls-9" d="M184.48,165.35l1.09.18c-.14.4-.36.71-.67.92-.3.21-.68.31-1.14.31-.72,0-1.25-.24-1.6-.71-.27-.38-.41-.85-.41-1.43,0-.69.18-1.23.54-1.62.36-.39.81-.58,1.36-.58.62,0,1.1.2,1.46.61.36.41.53,1.03.51,1.87h-2.75c0,.33.1.58.27.76.17.18.38.27.63.27.17,0,.32-.05.43-.14s.21-.24.27-.45ZM184.54,164.24c0-.32-.09-.56-.25-.72-.16-.17-.35-.25-.57-.25-.24,0-.44.09-.59.26-.16.17-.23.41-.23.71h1.64Z"/><path class="cls-9" d="M186.44,162.53h1.01v.57c.36-.44.79-.66,1.29-.66.27,0,.5.05.69.16s.36.28.48.5c.18-.22.38-.39.59-.5s.44-.16.68-.16c.3,0,.56.06.77.19.21.12.37.31.47.54.08.18.11.46.11.86v2.65h-1.1v-2.37c0-.41-.04-.68-.11-.8-.1-.16-.26-.23-.47-.23-.15,0-.3.05-.43.14s-.23.23-.29.41c-.06.18-.09.47-.09.86v1.99h-1.1v-2.27c0-.4-.02-.66-.06-.78s-.1-.2-.18-.26c-.08-.06-.19-.09-.33-.09-.17,0-.32.05-.46.14-.14.09-.23.22-.29.39s-.09.46-.09.86v2.02h-1.1v-4.15Z"/><path class="cls-9" d="M193.64,161.96v-1.02h1.1v1.02h-1.1ZM193.64,166.67v-4.15h1.1v4.15h-1.1Z"/><path class="cls-9" d="M199.48,163.75l-1.08.2c-.04-.22-.12-.38-.25-.49s-.3-.16-.5-.16c-.27,0-.49.09-.65.28-.16.19-.24.5-.24.95,0,.49.08.84.25,1.04s.39.3.67.3c.21,0,.38-.06.51-.18.13-.12.23-.32.28-.61l1.08.18c-.11.5-.33.87-.64,1.12-.32.25-.74.38-1.28.38-.61,0-1.09-.19-1.45-.57s-.54-.91-.54-1.59.18-1.22.54-1.6c.36-.38.85-.57,1.47-.57.5,0,.91.11,1.21.33.3.22.51.55.64.99Z"/><path class="cls-9" d="M201.13,163.79l-1-.18c.11-.4.3-.7.58-.89.27-.19.68-.29,1.22-.29.49,0,.85.06,1.09.17.24.12.41.26.51.44.1.18.15.51.15.98v1.28c-.01.37,0,.63.04.81.04.17.1.36.2.56h-1.09c-.03-.07-.06-.18-.11-.32-.02-.06-.03-.11-.04-.13-.19.18-.39.32-.6.41-.21.09-.44.14-.68.14-.43,0-.76-.12-1.01-.35-.25-.23-.37-.52-.37-.88,0-.23.06-.44.17-.63s.27-.32.47-.42.49-.18.87-.26c.51-.1.87-.19,1.07-.27v-.11c0-.21-.05-.36-.16-.45s-.3-.13-.59-.13c-.2,0-.35.04-.46.12-.11.08-.2.21-.27.4ZM202.6,164.68c-.14.05-.36.1-.67.17-.3.07-.5.13-.6.19-.14.1-.21.23-.21.39s.06.29.17.4c.11.11.26.17.44.17.2,0,.39-.06.57-.2.13-.1.22-.22.26-.36.03-.09.04-.27.04-.54v-.22Z"/><path class="cls-9" d="M204.76,166.67v-5.73h1.1v5.73h-1.1Z"/><path class="cls-9" d="M153.55,175.09l1.1-.17c.05.21.14.38.29.49.14.11.34.17.6.17.28,0,.5-.05.64-.16.1-.07.14-.17.14-.29,0-.08-.03-.15-.08-.21-.05-.05-.18-.1-.37-.14-.89-.2-1.45-.37-1.68-.54-.33-.22-.49-.54-.49-.93,0-.36.14-.66.43-.91.28-.25.72-.37,1.32-.37s.99.09,1.27.28c.28.18.47.46.57.82l-1.04.19c-.04-.16-.13-.29-.25-.37s-.3-.13-.53-.13c-.29,0-.5.04-.62.12-.08.06-.12.13-.12.22,0,.08.04.14.11.2.1.07.44.18,1.03.31s.99.29,1.22.49c.23.2.34.47.34.82,0,.38-.16.71-.48.98s-.79.41-1.41.41c-.57,0-1.01-.12-1.34-.34-.33-.23-.54-.54-.65-.93Z"/><path class="cls-9" d="M158.39,171.56v-1.02h1.1v1.02h-1.1ZM158.39,176.27v-4.15h1.1v4.15h-1.1Z"/><path class="cls-9" d="M160.51,176.55l1.25.15c.02.15.07.25.14.3.1.08.27.12.49.12.29,0,.5-.04.64-.13.1-.06.17-.15.22-.28.03-.09.05-.26.05-.5v-.61c-.33.45-.74.67-1.24.67-.56,0-1-.24-1.32-.71-.25-.37-.38-.84-.38-1.39,0-.7.17-1.23.5-1.59s.75-.55,1.25-.55.94.22,1.27.68v-.58h1.03v3.72c0,.49-.04.86-.12,1.1s-.19.43-.34.57c-.15.14-.34.25-.58.32s-.55.12-.92.12c-.7,0-1.2-.12-1.5-.36-.29-.24-.44-.55-.44-.92,0-.04,0-.08,0-.13ZM161.49,174.11c0,.44.08.76.26.97.17.2.38.31.63.31.27,0,.5-.11.68-.31.18-.21.28-.52.28-.93s-.09-.75-.27-.96c-.18-.21-.4-.31-.67-.31s-.48.1-.65.31c-.17.2-.26.52-.26.94Z"/><path class="cls-9" d="M169.27,176.27h-1.1v-2.12c0-.45-.02-.74-.07-.87-.05-.13-.12-.23-.23-.31-.11-.07-.23-.11-.38-.11-.19,0-.36.05-.51.16-.15.1-.25.24-.31.41s-.08.49-.08.95v1.88h-1.1v-4.15h1.02v.61c.36-.47.82-.7,1.37-.7.24,0,.46.04.66.13.2.09.35.2.46.33.1.13.17.29.21.46s.06.42.06.74v2.58Z"/><path class="cls-9" d="M171.21,173.39l-1-.18c.11-.4.3-.7.58-.89.27-.19.68-.29,1.22-.29.49,0,.85.06,1.09.17.24.12.41.26.51.44.1.18.15.51.15.98v1.28c-.01.36,0,.63.04.81.04.17.1.36.2.56h-1.09c-.03-.07-.06-.18-.11-.32-.02-.07-.03-.11-.04-.13-.19.18-.39.32-.6.41-.21.09-.44.14-.68.14-.43,0-.76-.12-1.01-.35-.25-.23-.37-.53-.37-.88,0-.23.06-.44.17-.63s.27-.32.47-.42.49-.18.87-.26c.51-.1.87-.19,1.07-.27v-.11c0-.21-.05-.36-.16-.45s-.3-.13-.59-.13c-.2,0-.35.04-.46.12-.11.08-.2.21-.27.4ZM172.68,174.28c-.14.05-.36.1-.67.17-.3.06-.5.13-.6.19-.14.1-.21.23-.21.39s.06.29.17.4c.11.11.26.17.44.17.2,0,.39-.07.57-.2.13-.1.22-.22.26-.36.03-.09.04-.27.04-.54v-.22Z"/><path class="cls-9" d="M174.84,176.27v-5.73h1.1v5.73h-1.1Z"/><path class="cls-11" d="M345.85,152.98h-.8c0,3.68-1.49,7.01-3.9,9.42-2.41,2.41-5.74,3.9-9.42,3.9-3.68,0-7.01-1.49-9.42-3.9-2.41-2.41-3.9-5.74-3.9-9.42,0-3.68,1.49-7.01,3.9-9.42,2.41-2.41,5.74-3.9,9.42-3.9,3.68,0,7.01,1.49,9.42,3.9,2.41,2.41,3.9,5.74,3.9,9.42h1.6c0-8.24-6.68-14.93-14.93-14.93-8.24,0-14.93,6.68-14.93,14.93,0,8.24,6.68,14.93,14.93,14.93,8.24,0,14.93-6.68,14.93-14.93h-.8Z"/><polyline class="cls-11" points="345.85 153.78 374.59 153.78 374.59 152.18 345.85 152.18"/><polyline class="cls-11" points="287.38 154.26 317.6 154.26 317.6 152.66 287.38 152.66"/><path class="cls-11" d="M334.69,147.91l-3.45,9.79,1.13.4-1.07-.54.24.12v-.27l-.24.15.24.12v-.27.27l.24-.12-.24-.15v.27l.24-.12-1.07.54,1.13-.4-3.45-9.79-2.26.8,3.48,9.86.03.07c.38.77,1.17,1.18,1.9,1.17.73,0,1.52-.41,1.9-1.17l.03-.07,3.48-9.86-2.26-.8Z"/><path class="cls-11" d="M345.85,187.94h-.8c0,3.68-1.49,7.01-3.9,9.42-2.41,2.41-5.74,3.9-9.42,3.9-3.68,0-7.01-1.49-9.42-3.9-2.41-2.41-3.9-5.74-3.9-9.42,0-3.68,1.49-7.01,3.9-9.42,2.41-2.41,5.74-3.9,9.42-3.9,3.68,0,7.01,1.49,9.42,3.9,2.41,2.41,3.9,5.74,3.9,9.42h1.6c0-8.24-6.68-14.93-14.93-14.93-8.24,0-14.93,6.68-14.93,14.93,0,8.24,6.68,14.93,14.93,14.93,8.24,0,14.93-6.68,14.93-14.93h-.8Z"/><polyline class="cls-11" points="345.85 188.74 374.59 188.74 374.59 187.14 345.85 187.14"/><polyline class="cls-11" points="287.38 189.22 317.6 189.22 317.6 187.62 287.38 187.62"/><path class="cls-11" d="M328.37,193.97l3.45-9.79-1.13-.4,1.07.54-.24-.12v.27s.24-.15.24-.15l-.24-.12v.27s0-.27,0-.27l-.24.12.24.15v-.27l-.24.12,1.07-.54-1.13.4,3.45,9.79,2.26-.8-3.48-9.86-.04-.07c-.38-.77-1.17-1.18-1.9-1.17-.73,0-1.52.41-1.9,1.17l-.04.07-3.48,9.86,2.26.8Z"/><polyline class="cls-11" points="328.51 191.17 334.55 191.17 334.55 188.77 328.51 188.77"/><circle class="cls-3" cx="394.04" cy="165.1" r="3.75"/><polygon class="cls-10" points="395.79 162.85 393.17 165.56 392.29 164.66 391.42 165.55 393.16 167.35 393.17 167.35 393.17 167.35 396.67 163.75 395.79 162.85"/><path class="cls-11" d="M400.22,167.9v-5.73h4.25v.97h-3.09v1.27h2.88v.96h-2.88v1.56h3.2v.96h-4.36Z"/><path class="cls-11" d="M405.55,167.9v-5.73h1.1v5.73h-1.1Z"/><path class="cls-11" d="M410.18,166.58l1.09.18c-.14.4-.36.71-.67.92-.3.21-.68.31-1.14.31-.72,0-1.25-.24-1.6-.71-.27-.38-.41-.85-.41-1.43,0-.69.18-1.23.54-1.62.36-.39.81-.58,1.36-.58.62,0,1.1.2,1.46.61.36.41.53,1.03.51,1.87h-2.75c0,.33.1.58.27.76.17.18.38.27.63.27.17,0,.32-.05.43-.14s.21-.24.27-.45ZM410.24,165.47c0-.32-.09-.56-.25-.72-.16-.17-.35-.25-.57-.25-.24,0-.44.09-.59.26-.16.17-.23.41-.23.71h1.64Z"/><path class="cls-11" d="M415.84,164.98l-1.08.2c-.04-.22-.12-.38-.25-.49s-.3-.16-.5-.16c-.27,0-.49.09-.65.28-.16.19-.24.5-.24.95,0,.49.08.84.25,1.04s.39.3.67.3c.21,0,.38-.06.51-.18.13-.12.23-.32.28-.61l1.08.18c-.11.5-.33.87-.64,1.12-.32.25-.74.38-1.28.38-.61,0-1.09-.19-1.45-.57s-.54-.91-.54-1.59.18-1.22.54-1.6c.36-.38.85-.57,1.47-.57.5,0,.91.11,1.21.33.3.22.51.55.64.99Z"/><path class="cls-11" d="M418.57,163.75v.88h-.75v1.67c0,.34,0,.54.02.59.01.06.05.1.1.14.05.04.11.05.19.05.1,0,.25-.04.44-.11l.09.85c-.25.11-.54.16-.87.16-.2,0-.38-.03-.54-.1s-.28-.15-.35-.26-.13-.25-.15-.43c-.02-.13-.04-.38-.04-.77v-1.81h-.5v-.88h.5v-.82l1.1-.64v1.46h.75Z"/><path class="cls-11" d="M420.39,167.9h-1.1v-4.15h1.02v.59c.17-.28.33-.46.47-.55.14-.09.3-.13.47-.13.25,0,.49.07.72.21l-.34.96c-.18-.12-.36-.18-.52-.18s-.28.04-.39.13c-.11.08-.19.24-.25.46-.06.22-.09.69-.09,1.39v1.28Z"/><path class="cls-11" d="M422.2,165.77c0-.36.09-.72.27-1.06.18-.34.43-.6.76-.78s.7-.27,1.1-.27c.63,0,1.14.2,1.54.61.4.41.6.92.6,1.54s-.2,1.15-.61,1.56c-.41.41-.92.62-1.53.62-.38,0-.74-.09-1.09-.26s-.61-.42-.79-.76-.27-.74-.27-1.21ZM423.32,165.83c0,.41.1.73.29.95s.44.33.72.33.53-.11.72-.33.29-.54.29-.95-.1-.72-.29-.94-.43-.33-.72-.33-.53.11-.72.33-.29.53-.29.95Z"/><path class="cls-11" d="M430.95,164.98l-1.08.2c-.04-.22-.12-.38-.25-.49s-.3-.16-.5-.16c-.27,0-.49.09-.65.28-.16.19-.24.5-.24.95,0,.49.08.84.25,1.04s.39.3.67.3c.21,0,.38-.06.51-.18.13-.12.23-.32.28-.61l1.08.18c-.11.5-.33.87-.64,1.12-.32.25-.74.38-1.28.38-.61,0-1.09-.19-1.45-.57s-.54-.91-.54-1.59.18-1.22.54-1.6c.36-.38.85-.57,1.47-.57.5,0,.91.11,1.21.33.3.22.51.55.64.99Z"/><path class="cls-11" d="M432.88,162.18v2.11c.35-.41.78-.62,1.27-.62.25,0,.48.05.68.14s.36.21.46.36c.1.15.17.31.21.48.04.18.06.45.06.82v2.43h-1.1v-2.19c0-.43-.02-.71-.06-.83s-.12-.21-.22-.28c-.11-.07-.24-.1-.4-.1-.18,0-.34.04-.49.13-.14.09-.25.22-.31.4-.07.18-.1.44-.1.79v2.08h-1.1v-5.73h1.1Z"/><path class="cls-11" d="M439.07,166.58l1.09.18c-.14.4-.36.71-.67.92-.3.21-.68.31-1.14.31-.72,0-1.25-.24-1.6-.71-.27-.38-.41-.85-.41-1.43,0-.69.18-1.23.54-1.62.36-.39.81-.58,1.36-.58.62,0,1.1.2,1.46.61.36.41.53,1.03.51,1.87h-2.75c0,.33.1.58.27.76.17.18.38.27.63.27.17,0,.32-.05.43-.14s.21-.24.27-.45ZM439.14,165.47c0-.32-.09-.56-.25-.72-.16-.17-.35-.25-.57-.25-.24,0-.44.09-.59.26-.16.17-.23.41-.23.71h1.64Z"/><path class="cls-11" d="M441.04,163.75h1.01v.57c.36-.44.79-.66,1.29-.66.27,0,.5.05.69.16s.36.28.48.5c.18-.22.38-.39.59-.5s.44-.16.68-.16c.3,0,.56.06.77.19.21.12.37.31.47.54.08.18.11.46.11.86v2.65h-1.1v-2.37c0-.41-.04-.68-.11-.8-.1-.16-.26-.23-.47-.23-.15,0-.3.05-.43.14s-.23.23-.29.41c-.06.18-.09.47-.09.86v1.99h-1.1v-2.27c0-.4-.02-.66-.06-.78s-.1-.2-.18-.26c-.08-.06-.19-.09-.33-.09-.17,0-.32.05-.46.14-.14.09-.23.22-.29.39s-.09.46-.09.86v2.02h-1.1v-4.15Z"/><path class="cls-11" d="M448.23,163.19v-1.02h1.1v1.02h-1.1ZM448.23,167.9v-4.15h1.1v4.15h-1.1Z"/><path class="cls-11" d="M454.07,164.98l-1.08.2c-.04-.22-.12-.38-.25-.49s-.3-.16-.5-.16c-.27,0-.49.09-.65.28-.16.19-.24.5-.24.95,0,.49.08.84.25,1.04s.39.3.67.3c.21,0,.38-.06.51-.18.13-.12.23-.32.28-.61l1.08.18c-.11.5-.33.87-.64,1.12-.32.25-.74.38-1.28.38-.61,0-1.09-.19-1.45-.57s-.54-.91-.54-1.59.18-1.22.54-1.6c.36-.38.85-.57,1.47-.57.5,0,.91.11,1.21.33.3.22.51.55.64.99Z"/><path class="cls-11" d="M455.73,165.02l-1-.18c.11-.4.3-.7.58-.89.27-.19.68-.29,1.22-.29.49,0,.85.06,1.09.17.24.12.41.26.51.44.1.18.15.51.15.98v1.28c-.01.37,0,.63.04.81.04.17.1.36.2.56h-1.09c-.03-.07-.06-.18-.11-.32-.02-.06-.03-.11-.04-.13-.19.18-.39.32-.6.41-.21.09-.44.14-.68.14-.43,0-.76-.12-1.01-.35-.25-.23-.37-.52-.37-.88,0-.23.06-.44.17-.63s.27-.32.47-.42.49-.18.87-.26c.51-.1.87-.19,1.07-.27v-.11c0-.21-.05-.36-.16-.45s-.3-.13-.59-.13c-.2,0-.35.04-.46.12-.11.08-.2.21-.27.4ZM457.2,165.91c-.14.05-.36.1-.67.17-.3.07-.5.13-.6.19-.14.1-.21.23-.21.39s.06.29.17.4c.11.11.26.17.44.17.2,0,.39-.06.57-.2.13-.1.22-.22.26-.36.03-.09.04-.27.04-.54v-.22Z"/><path class="cls-11" d="M459.36,167.9v-5.73h1.1v5.73h-1.1Z"/><path class="cls-11" d="M414.15,176.32l1.1-.17c.05.21.14.38.29.49.14.11.34.17.6.17.28,0,.5-.05.64-.16.1-.07.14-.17.14-.29,0-.08-.03-.15-.08-.21-.05-.05-.18-.1-.37-.14-.89-.2-1.45-.37-1.68-.54-.33-.22-.49-.54-.49-.93,0-.36.14-.66.43-.91.28-.25.72-.37,1.32-.37s.99.09,1.27.28c.28.18.47.46.57.82l-1.04.19c-.04-.16-.13-.29-.25-.37s-.3-.13-.53-.13c-.29,0-.5.04-.62.12-.08.06-.12.13-.12.22,0,.08.04.14.11.2.1.07.44.18,1.03.31s.99.29,1.22.49c.23.2.34.47.34.82,0,.38-.16.71-.48.98s-.79.41-1.41.41c-.57,0-1.01-.12-1.34-.34-.33-.23-.54-.54-.65-.93Z"/><path class="cls-11" d="M418.99,172.79v-1.02h1.1v1.02h-1.1ZM418.99,177.5v-4.15h1.1v4.15h-1.1Z"/><path class="cls-11" d="M421.11,177.78l1.25.15c.02.15.07.25.14.3.1.08.27.12.49.12.29,0,.5-.04.64-.13.1-.06.17-.15.22-.28.03-.09.05-.26.05-.5v-.61c-.33.45-.74.67-1.24.67-.56,0-1-.24-1.32-.71-.25-.37-.38-.84-.38-1.39,0-.7.17-1.23.5-1.59s.75-.55,1.25-.55.94.22,1.27.68v-.58h1.03v3.72c0,.49-.04.86-.12,1.1s-.19.43-.34.57c-.15.14-.34.25-.58.32s-.55.12-.92.12c-.7,0-1.2-.12-1.5-.36-.29-.24-.44-.55-.44-.92,0-.04,0-.08,0-.13ZM422.09,175.34c0,.44.08.76.26.97.17.2.38.31.63.31.27,0,.5-.11.68-.31.18-.21.28-.52.28-.93s-.09-.75-.27-.96c-.18-.21-.4-.31-.67-.31s-.48.1-.65.31c-.17.2-.26.52-.26.94Z"/><path class="cls-11" d="M429.87,177.5h-1.1v-2.12c0-.45-.02-.74-.07-.87-.05-.13-.12-.23-.23-.31-.11-.07-.23-.11-.38-.11-.19,0-.36.05-.51.16-.15.1-.25.24-.31.41s-.08.49-.08.95v1.88h-1.1v-4.15h1.02v.61c.36-.47.82-.7,1.37-.7.24,0,.46.04.66.13.2.09.35.2.46.33.1.13.17.29.21.46s.06.42.06.74v2.58Z"/><path class="cls-11" d="M431.8,174.62l-1-.18c.11-.4.3-.7.58-.89.27-.19.68-.29,1.22-.29.49,0,.85.06,1.09.17.24.12.41.26.51.44.1.18.15.51.15.98v1.28c-.01.36,0,.63.04.81.04.17.1.36.2.56h-1.09c-.03-.07-.06-.18-.11-.32-.02-.07-.03-.11-.04-.13-.19.18-.39.32-.6.41-.21.09-.44.14-.68.14-.43,0-.76-.12-1.01-.35-.25-.23-.37-.53-.37-.88,0-.23.06-.44.17-.63s.27-.32.47-.42.49-.18.87-.26c.51-.1.87-.19,1.07-.27v-.11c0-.21-.05-.36-.16-.45s-.3-.13-.59-.13c-.2,0-.35.04-.46.12-.11.08-.2.21-.27.4ZM433.27,175.51c-.14.05-.36.1-.67.17-.3.06-.5.13-.6.19-.14.1-.21.23-.21.39s.06.29.17.4c.11.11.26.17.44.17.2,0,.39-.07.57-.2.13-.1.22-.22.26-.36.03-.09.04-.27.04-.54v-.22Z"/><path class="cls-11" d="M435.43,177.5v-5.73h1.1v5.73h-1.1Z"/></g></svg>